# xmcd
#
# Track frame offsets: 
#        150
#        19073
#        38449
#        67072
#        97428
#        115666
#        136857
#        155566
#        175048
#        198756
#        211333
#        241006
#        263118
#
# Disc length: 3694 seconds
#
# Revision: 0
# Processed by: cddbd v1.5.2PL0 Copyright (c) Steve Scherf et al.
# Submitted via: ExactAudioCopy v0.95b3
#
DISCID=aa0e6c0d
DTITLE=Hank Shizzoe &The Directors - Headlines
DYEAR=2007
DGENRE=Blues
TTITLE0=Are We There Yet?
TTITLE1=Hey Now Say Now
TTITLE2=The Farmer's Song (For Ali)
TTITLE3=49 Days And 50 Nights
TTITLE4=Yea! Heavy And A Bottle Of Bread
TTITLE5=Make The Jockey Run
TTITLE6=Headline
TTITLE7=Forgive And Remember
TTITLE8=Out Of Control
TTITLE9=Monochrome
TTITLE10=Flash In The Pan
TTITLE11=The Sailor And The Queen
TTITLE12=Thanks I'm Feeling Fine
EXTD=
EXTT0=
EXTT1=
EXTT2=
EXTT3=
EXTT4=
EXTT5=
EXTT6=
EXTT7=
EXTT8=
EXTT9=
EXTT10=
EXTT11=
EXTT12=
PLAYORDER=
